<?xml version="1.0" encoding="iso-8859-1"?>
<!-- Generator: Adobe Illustrator 19.0.0, SVG Export Plug-In . SVG Version: 6.00 Build 0)  -->
<svg version="1.1" id="Capa_1" xmlns="http://www.w3.org/2000/svg" xmlns:xlink="http://www.w3.org/1999/xlink" x="0px" y="0px"
	 viewBox="0 0 512.008 512.008" style="enable-background:new 0 0 512.008 512.008;" xml:space="preserve">
<g transform="translate(0 -1)">
	<g>
		<g>
			<path d="M494.938,111.941h-25.6V43.675c0.241-18.387-12.462-34.416-30.417-38.383c-11.334-2.446-23.165,0.383-32.167,7.692
				c-1.575,1.282-3.048,2.684-4.408,4.192c-5.471-7.888-13.766-13.372-23.167-15.317c-11.336-2.442-23.168,0.39-32.171,7.7
				c-2.184,1.777-4.167,3.786-5.917,5.992c-6.493-8.385-16.234-13.629-26.809-14.433c-10.363-0.785-20.6,2.684-28.35,9.609
				c-1.596,1.418-3.071,2.965-4.412,4.625c-7.146-9.027-18.016-14.306-29.529-14.342c-21.383,0.31-38.483,17.866-38.229,39.25v26.91
				c-0.233,0.681-0.376,1.389-0.425,2.106c0.049,0.717,0.192,1.425,0.425,2.105v6.428h-8.958
				C184.54,77.836,167.08,92.091,163,111.941h-22.627C126.994,84.867,98.957,68.18,68.779,69.33
				c-30.178,1.15-56.864,19.922-68.145,47.936c-1.07,2.63-0.76,5.62,0.825,7.976c1.586,2.355,4.239,3.767,7.079,3.766h51.2v34.133
				h-51.2c-2.839,0-5.493,1.411-7.079,3.766c-1.586,2.355-1.897,5.345-0.829,7.975c11.012,26.906,36.267,45.294,65.255,47.51
				c0.767,0.277,1.572,0.439,2.386,0.481c0.369-0.048,0.734-0.122,1.093-0.221c0.876,0.03,1.727,0.196,2.607,0.196
				c3.312-0.003,6.62-0.218,9.904-0.642c25.311-3.32,47.281-19.086,58.531-42h21.878c1.422,49.228,15.369,59.425,34.924,66.14
				c5.394,5.642,12.568,9.252,20.313,10.221c10.18,8.054,17.304,19.343,20.192,31.998c2.697,11.535,13,19.68,24.846,19.642h19.046
				v45.701c-9.511,11.743-15.326,26.044-16.708,41.093c-11.88,3.977-19.119,15.987-17.087,28.35
				c2.032,12.363,12.734,21.424,25.262,21.39h8.533v59.733c-0.001,2.263,0.898,4.434,2.499,6.035c1.6,1.6,3.771,2.499,6.035,2.499
				h102.4c2.263,0.001,4.434-0.898,6.035-2.499c1.6-1.6,2.499-3.771,2.499-6.035v-59.733h8.533
				c11.592,0.038,21.754-7.743,24.739-18.944c2.986-11.201-1.955-23.008-12.029-28.744c14.252-7.216,28.95-18.539,29.915-37.928
				c-0.253-11.783-3.956-23.233-10.65-32.933c-4.214-6.217-7.037-13.27-8.276-20.678c6.438-3.959,11.687-9.584,15.192-16.28
				c12.965-20.391,20.167-43.912,20.841-68.067v-40.958h25.6c9.421-0.012,17.054-7.646,17.067-17.067v-34.133
				C511.992,119.587,504.359,111.954,494.938,111.941z M59.738,204.41c-14.937-3.076-28.139-11.732-36.917-24.202h36.917V204.41z
				 M349.871,41.033v-1.642c-0.01-6.439,2.896-12.536,7.904-16.583c5.02-4.103,11.651-5.665,17.975-4.233
				c10.023,2.332,17.033,11.379,16.787,21.667v2.583c0,0.221,0.109,0.404,0.126,0.621c-0.002,0.072-0.042,0.131-0.042,0.204
				l-0.056,17.092h-42.667l0.056-17.042c-0.052-0.526-0.155-1.047-0.308-1.553C349.748,41.781,349.823,41.409,349.871,41.033z
				 M290.217,40.558l0.004-0.3v-2.167c0.294-5.623,2.838-10.89,7.058-14.617c4.321-3.863,10.034-5.79,15.812-5.333
				c11.471,1.443,19.988,11.334,19.713,22.892c0.053,0.516,0.156,1.026,0.307,1.523c-0.1,0.359-0.175,0.724-0.224,1.094
				l-0.056,17.092h-42.64l-0.053-16.658c0.007-0.144,0.082-0.263,0.082-0.408L290.217,40.558z M240.594,21.388
				c6.407-4.08,14.51-4.411,21.229-0.867c6.718,3.544,11.02,10.419,11.27,18.011c-0.012,0.342-0.021,0.692-0.021,1.042l0.073,3.755
				c-0.005,0.13-0.074,0.239-0.073,0.37l0.056,17.042H230.83V40.258C230.46,32.671,234.187,25.468,240.594,21.388z M204.805,94.875
				h8.958v17.067h-32.986C184.37,101.742,193.992,94.908,204.805,94.875z M135.088,163.141l-0.042,0.008
				c-3.415,0.079-6.472,2.135-7.834,5.268l-0.032,0.049c-8.13,19.848-26.207,33.87-47.454,36.808c-0.98,0.13-1.945,0.099-2.921,0.18
				v-76.447c-0.011-9.421-7.645-17.056-17.067-17.067H22.796c12.524-17.99,33.897-27.674,55.68-25.227
				c21.783,2.447,40.475,16.631,48.695,36.952l0.04,0.06c0.38,0.856,0.899,1.643,1.536,2.329c0.118,0.133,0.176,0.321,0.301,0.446
				c0.62,0.568,1.32,1.041,2.078,1.404c0.222,0.119,0.393,0.323,0.623,0.421c0.207,0.087,0.455,0.071,0.67,0.143
				c0.834,0.311,1.712,0.488,2.602,0.525l0.066,0.014h78.675v34.133H135.088z M187.942,220.856
				c-4.863-6.598-8.004-18.179-8.62-40.648h34.441v9.612C199.288,193.394,188.823,205.972,187.942,220.856z M221.871,239.941
				c-9.426,0-17.067-7.641-17.067-17.067s7.641-17.067,17.067-17.067s17.067,7.641,17.067,17.067
				C238.927,232.296,231.292,239.931,221.871,239.941z M315.738,495.941h-17.067v-51.2h17.067V495.941z M349.871,495.941h-17.067
				v-51.2h17.067V495.941z M384.005,495.941h-17.067v-51.2h17.067V495.941z M409.605,427.675H273.071
				c-4.713,0-8.533-3.82-8.533-8.533s3.821-8.533,8.533-8.533h136.533c4.713,0,8.533,3.82,8.533,8.533
				S414.318,427.675,409.605,427.675z M341.338,342.341c29.68,0.038,54.845,21.83,59.125,51.2h-17.321
				c-4.055-19.865-21.529-34.133-41.804-34.133s-37.749,14.268-41.804,34.133h-17.321
				C286.493,364.172,311.658,342.38,341.338,342.341z M298.671,338.26v-30.052h34.133v17.571
				C320.588,327.129,308.878,331.411,298.671,338.26z M349.871,325.779v-17.571h34.133v30.052
				C373.798,331.411,362.088,327.129,349.871,325.779z M365.475,393.541h-48.275c3.617-10.228,13.288-17.067,24.138-17.067
				S361.858,383.313,365.475,393.541z M435.18,358.275c-0.449,9.033-6.753,16.374-19.927,23.211
				c-2.797-10.063-7.623-19.448-14.181-27.577v-45.701h15.32c1.606,9.409,5.124,18.388,10.338,26.383
				C431.686,341.55,434.612,349.75,435.18,358.275z M452.271,221.166c-0.77,21.036-7.117,41.49-18.392,59.267
				c-3.867,6.425-7.25,10.708-11.175,10.708H262.559c-3.846,0.075-7.236-2.512-8.179-6.242c-2.697-11.903-8.284-22.958-16.267-32.19
				c12.267-6.568,19.273-19.968,17.665-33.79c-1.607-13.822-11.501-25.257-24.948-28.835V77.808h50.775l0.042-0.009l0.042,0.009
				h170.583V221.166z M452.271,60.741h-42.639l0.056-17.042c0.001-0.23-0.112-0.424-0.129-0.65c0.002-0.079,0.045-0.145,0.045-0.225
				c-0.008-6.442,2.899-12.541,7.908-16.592c5.02-4.104,11.652-5.663,17.975-4.225c10.023,2.331,17.032,11.379,16.783,21.667V60.741
				z M494.938,163.141h-25.6v-34.133h25.6V163.141z"/>
			<path d="M298.671,171.675h-17.067c-4.713,0-8.533,3.82-8.533,8.533s3.82,8.533,8.533,8.533h17.067v17.067h-17.067
				c-4.713,0-8.533,3.821-8.533,8.533c0,4.713,3.82,8.533,8.533,8.533h17.067v8.533c-0.001,2.263,0.898,4.434,2.499,6.035
				c1.6,1.6,3.771,2.499,6.035,2.499h8.533v17.067c0,4.713,3.82,8.533,8.533,8.533s8.533-3.82,8.533-8.533v-17.067h17.067v17.067
				c0,4.713,3.82,8.533,8.533,8.533s8.533-3.82,8.533-8.533v-17.067h8.533c2.263,0.001,4.434-0.898,6.035-2.499
				c1.6-1.6,2.499-3.771,2.499-6.035v-8.533h17.067c4.713,0,8.533-3.821,8.533-8.533c0-4.713-3.82-8.533-8.533-8.533h-17.067
				v-17.067h17.067c4.713,0,8.533-3.82,8.533-8.533s-3.82-8.533-8.533-8.533h-17.067v-8.533c0.001-2.263-0.898-4.434-2.499-6.035
				c-1.6-1.6-3.771-2.499-6.035-2.499h-8.533v-17.067c0-4.713-3.82-8.533-8.533-8.533s-8.533,3.82-8.533,8.533v17.067h-17.067
				v-17.067c0-4.713-3.82-8.533-8.533-8.533s-8.533,3.82-8.533,8.533v17.067h-8.533c-2.263-0.001-4.434,0.898-6.035,2.499
				c-1.6,1.6-2.499,3.771-2.499,6.035V171.675z M315.738,171.675h51.2v51.2h-51.2V171.675z"/>
			<path d="M262.063,97.349c-2.453-2.425-6.126-3.133-9.304-1.792c-2.141,0.78-3.828,2.467-4.608,4.608
				c-1.54,3.757-0.221,8.08,3.155,10.337s7.874,1.824,10.758-1.035c0.751-0.832,1.357-1.784,1.792-2.817
				c0.911-2.065,0.911-4.418,0-6.483C263.422,99.133,262.816,98.18,262.063,97.349z"/>
			<path d="M283.024,108.179c1.584,2.375,4.26,3.79,7.114,3.762c1.115-0.014,2.216-0.246,3.242-0.683
				c1.034-0.433,1.987-1.039,2.817-1.792c0.751-0.832,1.357-1.784,1.792-2.817c0.911-2.065,0.911-4.418,0-6.483
				c-0.433-1.034-1.039-1.986-1.792-2.817c-2.453-2.425-6.126-3.133-9.304-1.792c-1.033,0.433-1.984,1.039-2.813,1.792
				c-0.773,0.815-1.383,1.772-1.796,2.817C281.162,102.791,281.44,105.805,283.024,108.179z"/>
			<path d="M318.213,109.467c3.365,3.3,8.752,3.3,12.117,0c0.751-0.832,1.357-1.784,1.792-2.817
				c0.478-1.012,0.713-2.123,0.683-3.242c-0.014-1.115-0.246-2.216-0.683-3.242c-0.433-1.034-1.039-1.986-1.792-2.817
				c-0.406-0.366-0.834-0.708-1.279-1.025c-0.475-0.325-0.992-0.582-1.538-0.767c-0.485-0.246-1.003-0.42-1.537-0.517
				c-1.664-0.348-3.394-0.167-4.95,0.517c-2.141,0.78-3.828,2.467-4.608,4.608c-0.906,2.066-0.906,4.417,0,6.483
				C316.852,107.683,317.459,108.636,318.213,109.467z"/>
			<path d="M352.346,109.467c2.441,2.444,6.125,3.154,9.3,1.792c1.034-0.433,1.987-1.039,2.817-1.792
				c0.751-0.832,1.357-1.784,1.792-2.817c0.478-1.012,0.713-2.123,0.683-3.242c-0.014-1.115-0.246-2.216-0.683-3.242
				c-0.433-1.034-1.039-1.986-1.792-2.817c-3.421-3.158-8.695-3.158-12.117,0c-0.755,0.829-1.363,1.782-1.796,2.817
				c-0.436,1.026-0.667,2.127-0.679,3.242c-0.029,1.119,0.204,2.229,0.679,3.242C350.985,107.683,351.593,108.636,352.346,109.467z"
				/>
			<path d="M386.479,109.467c0.829,0.753,1.78,1.359,2.813,1.792c2.067,0.911,4.421,0.911,6.487,0
				c1.034-0.433,1.987-1.039,2.817-1.792c0.751-0.832,1.357-1.784,1.792-2.817c0.478-1.012,0.713-2.123,0.683-3.242
				c-0.014-1.115-0.246-2.216-0.683-3.242c-0.777-2.143-2.465-3.831-4.608-4.608c-3.177-1.341-6.849-0.634-9.3,1.792
				c-0.755,0.829-1.363,1.782-1.796,2.817c-0.436,1.026-0.667,2.127-0.68,3.241c-0.029,1.119,0.204,2.229,0.679,3.242
				C385.119,107.683,385.726,108.636,386.479,109.467z"/>
			<path d="M420.613,109.467c3.365,3.3,8.752,3.3,12.117,0c0.752-0.831,1.358-1.783,1.792-2.817c0.911-2.065,0.911-4.418,0-6.483
				c-0.412-1.045-1.02-2.001-1.792-2.817c-0.419-0.387-0.877-0.731-1.367-1.025c-0.434-0.339-0.925-0.599-1.45-0.767
				c-0.51-0.259-1.059-0.433-1.625-0.517c-1.094-0.25-2.231-0.25-3.325,0c-0.534,0.096-1.05,0.27-1.533,0.517
				c-0.546,0.184-1.065,0.442-1.542,0.767c-0.445,0.316-0.871,0.658-1.275,1.024c-0.754,0.829-1.36,1.782-1.792,2.817
				c-0.911,2.065-0.911,4.418,0,6.483C419.254,107.683,419.86,108.636,420.613,109.467z"/>
			<path d="M426.671,129.008c-4.713,0-8.533,3.82-8.533,8.533v17.067c-0.001,2.264,0.897,4.435,2.498,6.035s3.772,2.499,6.035,2.498
				c2.264,0.001,4.435-0.897,6.035-2.498s2.499-3.772,2.498-6.035v-17.067C435.205,132.829,431.384,129.008,426.671,129.008z"/>
			<path d="M426.671,222.875c-4.713,0-8.533,3.82-8.533,8.533v17.067c-0.001,2.264,0.897,4.435,2.498,6.035
				c1.601,1.601,3.772,2.499,6.035,2.498c2.264,0.001,4.435-0.897,6.035-2.498c1.601-1.601,2.499-3.772,2.498-6.035v-17.067
				C435.205,226.695,431.384,222.875,426.671,222.875z"/>
		</g>
	</g>
</g>
<g>
</g>
<g>
</g>
<g>
</g>
<g>
</g>
<g>
</g>
<g>
</g>
<g>
</g>
<g>
</g>
<g>
</g>
<g>
</g>
<g>
</g>
<g>
</g>
<g>
</g>
<g>
</g>
<g>
</g>
</svg>
