<svg xmlns="http://www.w3.org/2000/svg" enable-background="new 0 0 64 64" height="64" width="64" style=""><rect id="backgroundrect" width="100%" height="100%" x="0" y="0" fill="none" stroke="none"/><g class="currentLayer" style=""><title>Layer 1</title><path d="m45.079 45h4.921v3c0 3.86-3.141 7-7 7h-27c-3.859 0-7-3.14-7-7v-1h-8v1c0 8.271 6.729 15 15 15h27c8.271 0 15-6.729 15-15v-3h4.921l-8.921-12.744zm10.921-2v5c0 7.168-5.832 13-13 13h-27c-6.832 0-12.449-5.297-12.962-12h4.018c.499 4.494 4.319 8 8.944 8h27c4.963 0 9-4.038 9-9v-5h-3.079l5.079-7.256 5.079 7.256z" id="svg_1" class="" fill-opacity="1" fill="#27aee3"/><path d="m48 1h-27c-8.271 0-15 6.729-15 15v3h-4.921l8.921 12.744 8.921-12.744h-4.921v-3c0-3.86 3.141-7 7-7h27c3.859 0 7 3.14 7 7v1h8v-1c0-8.271-6.729-15-15-15zm8.944 14c-.499-4.494-4.319-8-8.944-8h-27c-4.963 0-9 4.038-9 9v5h3.079l-5.079 7.256-5.079-7.256h3.079v-5c0-7.168 5.832-13 13-13h27c6.832 0 12.449 5.297 12.962 12z" id="svg_2" class="" fill="#27aee3" fill-opacity="1"/><path d="m41 11h2v2h-2z" id="svg_3" class="" fill-opacity="1" fill="#27aee3"/><path d="m53 17v-1c0-2.757-2.243-5-5-5h-3v2h3c1.654 0 3 1.346 3 3v1z" id="svg_4" class="" fill-opacity="1" fill="#27aee3"/><path d="m19,43.47643983364105 v9 h26 v-9 c0,-5.541 -3.491,-10.27 -8.384,-12.138 c3.195,-1.6710000000000003 5.384,-5.013 5.384,-8.862 c0,-5.514 -4.486,-10 -10,-10 s-10,4.486 -10,10 c0,3.849 2.189,7.191 5.384,8.862 c-4.893,1.868 -8.384,6.597 -8.384,12.138 zm2,0 c0,-2.103 0.6030000000000001,-4.062 1.6310000000000002,-5.734 l-0.7140000000000001,6.427 l2.673,0.8910000000000001 l-0.771,1.541 l3.1,3.875 h-5.9190000000000005 zm18.917,-0.6930000000000002 l-3.327,1.109 l1.229,2.459 l-3.3,4.125 h-1.222 l4.3260000000000005,-16.437 c0.504,0.30200000000000005 0.987,0.6350000000000001 1.435,1.011 zm-15.834,0 l0.8600000000000001,-7.734 c0.44800000000000006,-0.37600000000000006 0.931,-0.7090000000000001 1.435,-1.011 l4.325,16.438 h-1.222 l-3.3,-4.125 l1.229,-2.459 zm18.917,7.6930000000000005 h-5.9190000000000005 l3.1,-3.875 l-0.771,-1.541 l2.673,-0.8910000000000001 l-0.7140000000000001,-6.427 c1.028,1.6720000000000002 1.6310000000000002,3.6310000000000002 1.6310000000000002,5.734 zm-19,-28 c0,-4.411 3.589,-8 8,-8 s8,3.589 8,8 s-3.589,8 -8,8 s-8,-3.589 -8,-8 zm11.786,10.685 l-3.786,14.387 l-3.786,-14.386 c1.183,-0.43600000000000005 2.454,-0.6860000000000002 3.786,-0.6860000000000002 s2.603,0.25 3.786,0.6850000000000002 z" id="svg_5" class="" fill-opacity="1" fill="#27aee3"/></g></svg>