<svg xmlns="http://www.w3.org/2000/svg" enable-background="new 0 0 64 64" height="64" width="64"><rect id="backgroundrect" width="100%" height="100%" x="0" y="0" fill="none" stroke="none"/><g class="currentLayer" style=""><title>Layer 1</title><path d="m58 11h-3v-10h-46v10h-3c-2.757 0-5 2.243-5 5v30c0 2.757 2.243 5 5 5h17.382l-2 4h-1.382c-2.757 0-5 2.243-5 5v3h34v-3c0-2.757-2.243-5-5-5h-1.382l-2-4h17.382c2.757 0 5-2.243 5-5v-30c0-2.757-2.243-5-5-5zm-3 28v-22h2v26h-35.586l-1.414-1.414c-.378-.378-.88-.586-1.414-.586h-11.586v-24h2v22zm-44-28h42v26h-42zm42-8v6h-42v-6zm-6 57v1h-30v-1c0-1.654 1.346-3 3-3h24c1.654 0 3 1.346 3 3zm-6.618-5h-16.764l2-4h12.764zm20.618-9c0 1.654-1.346 3-3 3h-52c-1.654 0-3-1.346-3-3v-30c0-1.654 1.346-3 3-3h3v2h-2c-1.103 0-2 .897-2 2v24c0 1.103.897 2 2 2h11.586l1.414 1.414c.378.378.88.586 1.414.586h35.586c1.103 0 2-.897 2-2v-26c0-1.103-.897-2-2-2h-2v-2h3c1.654 0 3 1.346 3 3z" id="svg_1" class="" fill-opacity="1" fill="#27aee3"/><path d="m7 45h2v2h-2z" id="svg_2" class="" fill-opacity="1" fill="#27aee3"/><path d="m11 45h2v2h-2z" id="svg_3" class="" fill-opacity="1" fill="#27aee3"/><path d="m15 45h2v2h-2z" id="svg_4" class="" fill-opacity="1" fill="#27aee3"/><path d="m13 5h2v2h-2z" id="svg_5" class="" fill-opacity="1" fill="#27aee3"/><path d="m17 5h2v2h-2z" id="svg_6" class="" fill-opacity="1" fill="#27aee3"/><path d="m21 5h2v2h-2z" id="svg_7" class="" fill-opacity="1" fill="#27aee3"/><path d="m39 13h12v2h-12z" id="svg_8" class="" fill-opacity="1" fill="#27aee3"/><path d="m49 17h2v2h-2z" id="svg_9" class="" fill-opacity="1" fill="#27aee3"/><path d="m45 17h2v2h-2z" id="svg_10" class="" fill-opacity="1" fill="#27aee3"/><path d="m39 17h4v2h-4z" id="svg_11" class="" fill-opacity="1" fill="#27aee3"/><path d="m39 21h12v2h-12z" id="svg_12" class="" fill-opacity="1" fill="#27aee3"/><path d="m49 25h2v2h-2z" id="svg_13" class="" fill-opacity="1" fill="#27aee3"/><path d="m45 25h2v2h-2z" id="svg_14" class="" fill-opacity="1" fill="#27aee3"/><path d="m39 25h4v2h-4z" id="svg_15" class="" fill-opacity="1" fill="#27aee3"/><path d="m39 29h12v2h-12z" id="svg_16" class="" fill-opacity="1" fill="#27aee3"/><path d="m49 33h2v2h-2z" id="svg_17" class="" fill-opacity="1" fill="#27aee3"/><path d="m45 33h2v2h-2z" id="svg_18" class="" fill-opacity="1" fill="#27aee3"/><path d="m39 33h4v2h-4z" id="svg_19" class="" fill-opacity="1" fill="#27aee3"/><path d="m13 23h16v-10h-16zm2-8h12v6h-12z" id="svg_20" class="" fill-opacity="1" fill="#27aee3"/><path d="m13 25h2v2h-2z" id="svg_21" class="" fill-opacity="1" fill="#27aee3"/><path d="m17 25h12v2h-12z" id="svg_22" class="" fill-opacity="1" fill="#27aee3"/><path d="m13 29h16v2h-16z" id="svg_23" class="" fill-opacity="1" fill="#27aee3"/><path d="m13 33h16v2h-16z" id="svg_24" class="" fill-opacity="1" fill="#27aee3"/><path d="m31 35h6v-6h-6zm2-4h2v2h-2z" id="svg_25" class="" fill-opacity="1" fill="#27aee3"/><path d="m31 27h6v-6h-6zm2-4h2v2h-2z" id="svg_26" class="" fill-opacity="1" fill="#27aee3"/><path d="m31 19h6v-6h-6zm2-4h2v2h-2z" id="svg_27" class="" fill-opacity="1" fill="#27aee3"/></g></svg>