<svg height="496pt" viewBox="0 0 496 496" width="496pt" xmlns="http://www.w3.org/2000/svg"><path d="m325.617188 105.167969-30.785157-30.785157-18.511719 9.257813-6.550781-19.640625h-43.53125l-6.550781 19.640625-18.511719-9.257813-30.785156 30.785157 9.265625 18.519531-19.65625 6.542969v43.53125l19.648438 6.542969-9.265626 18.519531 30.785157 30.785156 18.511719-9.257813 6.550781 19.648438h43.53125l6.550781-19.640625 18.511719 9.257813 30.785156-30.785157-9.265625-18.519531 19.65625-6.542969v-43.53125l-19.648438-6.542969zm-5.617188 36.601562v20.46875l-18.382812 6.128907-1.34375 3.5625c-.386719 1.015624-.785157 2.015624-1.226563 3l-1.550781 3.460937 8.648437 17.296875-14.472656 14.472656-17.296875-8.648437-3.464844 1.550781c-1 .449219-2.007812.839844-3.03125 1.242188l-3.527344 1.351562-6.121093 18.34375h-20.46875l-6.121094-18.351562-3.527344-1.351563c-1.023437-.402344-2.042969-.800781-3.035156-1.242187l-3.460937-1.550782-17.296876 8.648438-14.472656-14.472656 8.648438-17.296876-1.550782-3.460937c-.441406-.984375-.839843-1.984375-1.226562-3l-1.34375-3.5625-18.375-6.128906v-20.46875l18.382812-6.128907 1.34375-3.5625c.386719-1.015624.785157-2.015624 1.226563-3l1.550781-3.460937-8.648437-17.296875 14.472656-14.472656 17.296875 8.648437 3.464844-1.550781c1-.449219 2.007812-.839844 3.03125-1.242188l3.527344-1.351562 6.121093-18.34375h20.46875l6.121094 18.351562 3.527344 1.351563c1.023437.402344 2.042969.800781 3.035156 1.242187l3.460937 1.550782 17.296876-8.648438 14.472656 14.472656-8.648438 17.296876 1.550782 3.460937c.441406.984375.839843 1.984375 1.226562 3l1.34375 3.5625zm0 0"/><path d="m248 112c-22.054688 0-40 17.945312-40 40s17.945312 40 40 40 40-17.945312 40-40-17.945312-40-40-40zm0 64c-13.230469 0-24-10.769531-24-24s10.769531-24 24-24 24 10.769531 24 24-10.769531 24-24 24zm0 0"/><path d="m128 272h40v32h16v-32h32v32h16v-32h32v32h16v-32h32v32h16v-32h40v-40h32v-16h-32v-32h32v-16h-32v-32h32v-16h-32v-32h32v-16h-32v-40h-40v-32h-16v32h-32v-32h-16v32h-32v-32h-16v32h-32v-32h-16v32h-3.3125l-36.6875 36.6875v3.3125h-32v16h32v32h-32v16h32v32h-32v16h32v32h-32v16h32zm16-196.6875 27.3125-27.3125h180.6875v208h-208zm0 0"/><path d="m464 136v-48h-48v16h32v312h-192v-96h-16v96h-192v-312h32v-16h-48v48h-32v328h208.808594c3.710937 18.230469 19.878906 32 39.191406 32s35.480469-13.769531 39.191406-32h208.808594v-328zm16 312h-208v8c0 13.230469-10.769531 24-24 24s-24-10.769531-24-24v-8h-208v-296h16v280h432v-280h16zm0 0"/><path d="m64 320h160v16h-160zm0 0"/><path d="m64 352h160v16h-160zm0 0"/><path d="m64 384h160v16h-160zm0 0"/><path d="m272 320h160v16h-160zm0 0"/><path d="m272 352h160v16h-160zm0 0"/><path d="m272 384h160v16h-160zm0 0"/></svg>