<svg id="Layer_5" enable-background="new 0 0 64 64" height="512" viewBox="0 0 64 64" width="512" xmlns="http://www.w3.org/2000/svg"><g><path d="m59 23v-19c0-1.654-1.346-3-3-3h-52c-1.654 0-3 1.346-3 3v44c0 1.654 1.346 3 3 3h31v6.985c0 2.765 2.25 5.015 5.015 5.015h17.971c2.764 0 5.014-2.25 5.014-5.015v-4.985-.496-29.504zm2 25.514c-.274-.208-.563-.398-.881-.548l-1.119-.526v-7.395c0-2.765-2.25-5.015-5.015-5.015h-10.985v-10.03h18zm-20-13.484h-.985c-1.662 0-3.015-1.353-3.015-3.015s1.353-3.015 3.015-3.015h.985zm-37-32.03h52c.552 0 1 .449 1 1v5h-54v-5c0-.551.448-1 1-1zm31 29.015v16.985h-31c-.552 0-1-.449-1-1v-37h54v12h-16v4h-.985c-2.765 0-5.015 2.25-5.015 5.015zm26 25.97c0 1.662-1.353 3.015-3.015 3.015h-17.97c-1.662 0-3.015-1.353-3.015-3.015v-21.965c.84.634 1.884 1.01 3.015 1.01h13.971c1.662 0 3.015 1.353 3.015 3.015v8.665l2.268 1.066c1.051.495 1.731 1.565 1.731 2.728v.496z"/><path d="m45 27h2v2h-2z"/><path d="m49 27h10v2h-10z"/><path d="m45 31h14v2h-14z"/><path d="m47 43c-4.411 0-8 3.589-8 8s3.589 8 8 8 8-3.589 8-8-3.589-8-8-8zm5.188 5h-1.459c-.141-.754-.338-1.463-.588-2.102.844.521 1.549 1.243 2.047 2.102zm.812 3c0 .341-.035.674-.09 1h-1.942c.019-.332.032-.666.032-1s-.013-.668-.033-1h1.942c.056.326.091.659.091 1zm-6 6c-.487 0-1.246-1.105-1.675-3h3.349c-.428 1.895-1.187 3-1.674 3zm-1.957-5c-.021-.324-.043-.649-.043-1s.022-.676.043-1h3.914c.021.324.043.649.043 1s-.022.676-.043 1zm-4.043-1c0-.341.035-.674.09-1h1.942c-.019.332-.032.666-.032 1s.013.668.033 1h-1.943c-.055-.326-.09-.659-.09-1zm6-6c.487 0 1.246 1.105 1.675 3h-3.349c.428-1.895 1.187-3 1.674-3zm-3.142.898c-.249.639-.447 1.348-.588 2.102h-1.459c.499-.859 1.204-1.581 2.047-2.102zm-2.046 8.102h1.459c.141.754.338 1.463.588 2.102-.844-.521-1.549-1.243-2.047-2.102zm8.33 2.102c.249-.639.447-1.348.588-2.102h1.459c-.499.859-1.204 1.581-2.047 2.102z"/><path d="m9 5h2v2h-2z"/><path d="m5 5h2v2h-2z"/><path d="m13 5h2v2h-2z"/><path d="m5 23h10v-10h-10zm2-8h6v6h-6z"/><path d="m5 35h10v-10h-10zm2-8h6v6h-6z"/><path d="m5 47h10v-10h-10zm2-8h6v6h-6z"/><path d="m17 13h16v2h-16z"/><path d="m17 17h16v2h-16z"/><path d="m31 21h2v2h-2z"/><path d="m17 21h12v2h-12z"/><path d="m21 25h12v2h-12z"/><path d="m17 25h2v2h-2z"/><path d="m17 29h16v2h-16z"/><path d="m31 33h2v2h-2z"/><path d="m17 33h12v2h-12z"/><path d="m17 37h16v2h-16z"/><path d="m17 41h16v2h-16z"/><path d="m17 45h8v2h-8z"/><path d="m27 45h2v2h-2z"/><path d="m31 45h2v2h-2z"/><path d="m55 13h-20v8h20zm-2 6h-16v-4h16z"/></g></svg>