<?xml version="1.0" encoding="iso-8859-1"?>
<!-- Generator: Adobe Illustrator 19.0.0, SVG Export Plug-In . SVG Version: 6.00 Build 0)  -->
<svg version="1.1" id="Capa_1" xmlns="http://www.w3.org/2000/svg" xmlns:xlink="http://www.w3.org/1999/xlink" x="0px" y="0px"
	 viewBox="0 0 512 512" style="enable-background:new 0 0 512 512;" xml:space="preserve">
<g>
	<g>
		<circle cx="106" cy="437" r="15"/>
	</g>
</g>
<g>
	<g>
		<path d="M406,422c-8.284,0-15,6.716-15,15s6.716,15,15,15s16-6.716,16-15S414.284,422,406,422z"/>
	</g>
</g>
<g>
	<g>
		<circle cx="316" cy="76" r="15"/>
	</g>
</g>
<g>
	<g>
		<circle cx="256" cy="256" r="15"/>
	</g>
</g>
<g>
	<g>
		<circle cx="196" cy="76" r="15"/>
	</g>
</g>
<g>
	<g>
		<path d="M512,136v-30c0-8.284-6.716-15-15-15s-15,6.716-15,15v30c0,8.271-6.729,15-15,15s-15-6.729-15-15v-30
			c0-8.284-6.716-15-15-15s-15,6.716-15,15v30c0,19.555,12.541,36.228,30,42.42v65.16c-4.357,1.545-8.41,3.739-12.036,6.472
			l-49.807-32.701C386.112,196.663,367.855,181,346,181h-45v-30h45c24.813,0,45-20.187,45-45V45c0-24.813-20.187-45-45-45H166
			c-24.813,0-45,20.187-45,45v61c0,24.813,20.187,45,45,45h45v30h-45c-21.855,0-40.112,15.663-44.157,36.351l-49.807,32.702
			c-3.626-2.734-7.679-4.927-12.036-6.473v-65.16c17.459-6.192,30-22.865,30-42.42v-30c0-8.284-6.716-15-15-15s-15,6.716-15,15v30
			c0,8.271-6.729,15-15,15s-15-6.729-15-15v-30c0-8.284-6.716-15-15-15S0,97.716,0,106v30c0,19.555,12.541,36.228,30,42.42v65.16
			C12.541,249.772,0,266.445,0,286c0,24.813,20.187,45,45,45s45-20.187,45-45c0-3.781-0.474-7.452-1.357-10.963L121,253.793V362h-15
			c-41.355,0-75,33.645-75,75c0,41.355,33.645,75,75,75h300c41.463,0,76-33.535,76-75c0-41.463-34.535-75-76-75h-15V253.792
			l32.357,21.244C422.474,278.548,422,282.219,422,286c0,24.813,20.187,45,45,45s45-20.187,45-45c0-19.555-12.541-36.228-30-42.42
			v-65.16C499.459,172.228,512,155.555,512,136z M45,301c-8.271,0-15-6.729-15-15s6.729-15,15-15s15,6.729,15,15S53.271,301,45,301z
			 M166,121c-8.271,0-15-6.729-15-15V45c0-8.271,6.729-15,15-15h180c8.271,0,15,6.729,15,15v61c0,8.271-6.729,15-15,15H166z
			 M271,151v30h-30v-30H271z M211,211h90v75c0,8.271-6.729,15-15,15h-60c-8.271,0-15-6.729-15-15V211z M106,482
			c-24.813,0-45-20.187-45-45s20.187-45,45-45s45,20.187,45,45S130.813,482,106,482z M151,226.191c0-0.006,0-0.013,0-0.019V226
			c0-8.271,6.729-15,15-15h15v75c0,24.813,20.187,45,45,45h60c24.813,0,45-20.187,45-45v-75h15c8.271,0,15,6.729,15,15v0.172
			c0,0.006,0,0.013,0,0.019V362H151V226.191z M346.041,391.9c-6.565,8.725-11.274,19.022-13.532,30.1H179.491
			c-2.258-11.078-6.967-21.375-13.532-30.1H346.041z M165.959,482c6.565-8.725,11.274-18.922,13.532-30H332.51
			c2.258,11.078,6.967,21.275,13.532,30H165.959z M406,392c24.935,0,46,20.607,46,45s-21.065,45-46,45c-24.813,0-45-20.187-45-45
			S381.187,392,406,392z M467,301c-8.271,0-15-6.729-15-15s6.729-15,15-15s15,6.729,15,15S475.271,301,467,301z"/>
	</g>
</g>
<g>
</g>
<g>
</g>
<g>
</g>
<g>
</g>
<g>
</g>
<g>
</g>
<g>
</g>
<g>
</g>
<g>
</g>
<g>
</g>
<g>
</g>
<g>
</g>
<g>
</g>
<g>
</g>
<g>
</g>
</svg>
